<?xml version="1.0" encoding="utf-8"?>
<!-- Generator: Adobe Illustrator 18.1.1, SVG Export Plug-In . SVG Version: 6.00 Build 0)  -->
<svg version="1.1" id="Layer_1" xmlns="http://www.w3.org/2000/svg" xmlns:xlink="http://www.w3.org/1999/xlink" x="0px" y="0px"
	 viewBox="0 0 200 200" enable-background="new 0 0 200 200" xml:space="preserve">
<g>
	<path fill="#00BCD4" d="M52.4,35.1c3.7,3.7,7.9,6.6,11.9,9.8c27.6,21.9,55.2,43.7,82.8,65.5c0.3,0.3,0.7,0.6,1.1,0.9
		c-6.8,3.5-13.5,6.9-20.2,10.4c-4.8,2.5-9.6,5-14.4,7.3c-1.4,0.7-1.4,1.3-0.7,2.5c3,5.8,5.8,11.6,8.8,17.4c0.7,1.4,0.8,2.1-0.8,3.1
		c-6.7,4-13.3,8.2-19.9,12.4c-1.5,0.9-2.1,0.9-2.8-0.8c-3-6.7-6.1-13.3-9.1-19.9c-0.7-1.5-1.2-1.5-2.5-0.8
		c-11,5.7-22.1,11.3-33.1,17c-0.5,0.2-0.9,0.6-1.4,0.4c0-41,0-82.1,0-123.1C52,36.4,51.4,35.5,52.4,35.1z M62.8,144.5
		c9.3-4.8,18.7-9.5,28-14.4c1.4-0.7,1.9-0.6,2.6,0.9c2.9,6.5,5.9,12.9,8.8,19.3c0.6,1.3,1.1,1.7,2.4,0.7c1.4-1,2.8-1.9,4.3-2.7
		c1.3-0.7,1.5-1.4,0.8-2.8c-3.1-6-6-12-9.1-18c-0.8-1.5-0.8-2.2,0.9-3c7.2-3.6,14.4-7.3,21.5-10.9c2.7-1.4,5.3-2.8,8.2-4.2
		C107.8,91,84.7,72.8,61.3,54.3"/>
</g>
</svg>
