<?xml version="1.0" encoding="utf-8"?>
<!-- Generator: Adobe Illustrator 18.1.1, SVG Export Plug-In . SVG Version: 6.00 Build 0)  -->
<svg version="1.1" id="Layer_1" xmlns="http://www.w3.org/2000/svg" xmlns:xlink="http://www.w3.org/1999/xlink" x="0px" y="0px"
	 viewBox="0 0 1366 300" enable-background="new 0 0 1366 300" xml:space="preserve">
<path fill="#0097A7" d="M1366,73.2v226.2h-178.2v0.6h-430l15.5-59.3l11.4,7.4l19.6-72.1l34.8-46.6l22.1,12.4l24.9-18.5l23.7,10.2
	l9.3-45.2l15.5,9.5l24-39.2l25.6,35.7l12.4-15.2l48.6,22.6l18.6-43l15.9,16.4l6.8-3.5l34.6,40.6l44-23.8l22.7,16.8l15.6-10.8
	l44.7,13.9c0,0,27.8-22,32.6-21.7c4.8,0.3,52.1,16.5,52.1,16.5L1366,73.2z"/>
<polygon fill="#0097A7" points="163.8,300 163.8,299.9 26,299.9 26,299.4 0,299.4 0,120.2 52,120.2 75.3,106.3 111.3,135.4 120,124 
	133,132.4 156.7,100.6 163.8,109.7 192,64.1 205.8,76.6 233.5,52.2 261.2,69 297,76.6 357.8,45.4 380.8,71.5 402.4,52.2 438.8,90.9 
	461,76.6 487.8,99.7 513.8,72.5 551.8,142.5 570.8,124.4 594.4,151.4 604.8,144.9 628.8,195.4 656.8,162.4 675.8,192.5 683.8,182.3 
	700.5,210.7 715.8,250.9 727.8,230.4 749.8,300 "/>
<polygon fill="#00838F" points="1366,32.8 1366,300 0,300 0,83.9 20,58.4 89,152.9 121,115.8 176.9,195.8 306.8,0.4 418.8,138.3 
	477.8,52.2 562.8,198.4 607.8,131.9 675.8,239 714.8,195 767.8,230.8 805.8,153.9 844.6,174.3 881.8,105 945.9,140.7 984.8,7.3 
	1074.5,102.4 1094.8,66.9 1176,155.7 1238.1,68.8 1295.1,128.9 "/>
<polygon fill="#00796B" points="276.9,120.8 280.4,133 283.8,145.1 276.9,145.1 270,145.1 273.5,133 "/>
<polygon fill="#26A69A" points="292.6,106.9 295.1,115.8 297.6,124.6 292.6,124.6 287.5,124.6 290,115.8 "/>
<polygon fill="#00796B" points="304.6,113.6 308.1,126 311.6,138.4 304.6,138.4 297.6,138.4 301.1,126 "/>
<polygon fill="#00897B" points="293.3,138.6 295.1,145.1 297,151.6 293.3,151.6 289.6,151.6 291.4,145.1 "/>
<polygon fill="#26A69A" points="238.6,168.6 241.1,175.8 243.6,182.9 238.6,182.9 233.5,182.9 236,175.8 "/>
<polygon fill="#00796B" points="402.4,173 405.9,182.9 409.3,192.9 402.4,192.9 395.5,192.9 399,182.9 "/>
<polygon fill="#00897B" points="392.1,164.9 394.4,173 396.7,181.1 392.1,181.1 387.5,181.1 389.8,173 "/>
<polygon fill="#00796B" points="415.2,160.3 417.5,171.6 419.8,182.9 415.2,182.9 410.6,182.9 412.9,171.6 "/>
<polygon fill="#26A69A" points="388.1,188.7 390.1,195.8 392.1,202.8 388.1,202.8 384.1,202.8 386.1,195.8 "/>
<polygon fill="#00796B" points="494.7,126.1 498.1,136 501.6,146 494.7,146 487.8,146 491.2,136 "/>
<polygon fill="#00897B" points="509.2,136 511.5,142.7 513.8,149.4 509.2,149.4 504.5,149.4 506.9,142.7 "/>
<polygon fill="#26A69A" points="498.4,149.7 500.1,155.7 501.8,161.8 498.4,161.8 494.9,161.8 496.6,155.7 "/>
<polygon fill="#00897B" points="901.2,167.9 903.9,178 906.6,188.2 901.2,188.2 895.8,188.2 898.5,178 "/>
<polygon fill="#26A69A" points="913.8,162.7 916.3,168 918.8,173.2 913.8,173.2 908.8,173.2 911.3,168 "/>
<polygon fill="#00796B" points="897,148.9 899.8,156.2 902.6,163.5 897,163.5 891.4,163.5 894.2,156.2 "/>
<polygon fill="#00897B" points="1038.4,182.6 1041.8,195.5 1045.2,208.3 1038.4,208.3 1031.7,208.3 1035.1,195.5 "/>
<polygon fill="#00796B" points="1016.5,182.6 1019.3,189.1 1022.1,195.6 1016.5,195.6 1010.9,195.6 1013.7,189.1 "/>
<polygon fill="#26A69A" points="1025.9,173.2 1027.8,180.4 1029.7,187.6 1025.9,187.6 1022.1,187.6 1024,180.4 "/>
<polygon fill="#00897B" points="1039.4,90.8 1041.8,99.9 1044.2,108.9 1039.4,108.9 1034.7,108.9 1037.1,99.9 "/>
<polygon fill="#26A69A" points="1028.8,87.2 1030.5,92.8 1032.3,98.4 1028.8,98.4 1025.2,98.4 1027,92.8 "/>
<polygon fill="#00897B" points="1018.4,95 1021.1,103.7 1023.8,112.4 1018.4,112.4 1013,112.4 1015.7,103.7 "/>
<polyline fill="#00796B" points="1031.8,122.4 1029.7,122.4 1025.2,122.4 1027.5,113.9 1029.7,105.5 1032,113.9 1034.2,122.4 
	1031.8,122.4 "/>
<polygon fill="#26A69A" points="982.4,76.7 984.3,83.9 986.2,91 982.4,91 978.6,91 980.5,83.9 "/>
<polygon fill="#00897B" points="1127.9,134.8 1130.3,143.9 1132.7,152.9 1127.9,152.9 1123.2,152.9 1125.6,143.9 "/>
<polyline fill="#00796B" points="1139.3,161.3 1137.2,161.3 1132.7,161.3 1134.9,152.9 1137.2,144.4 1139.4,152.9 1141.7,161.3 
	1139.3,161.3 "/>
<polygon fill="#26A69A" points="1146.7,138.8 1148.5,144.4 1150.2,150 1146.7,150 1143.2,150 1144.9,144.4 "/>
<polygon fill="#FAFAFA" points="281.2,38.9 300.4,52.6 319.1,38.9 349.1,52.6 306.8,0.4 "/>
<polygon fill="#FAFAFA" points="477.8,52.2 461,76.7 475.1,91 483.8,81.9 498.5,87.4 "/>
<polygon fill="#FAFAFA" points="984.8,7.3 971.7,52.2 989.8,58.4 999.8,45.4 1019.8,52.2 1021.6,46.3 "/>
<polygon fill="#FAFAFA" points="20,58.4 2,81.3 11,86.8 23.3,81.6 40.8,86.8 "/>
<path fill="#00838F" d="M1246,149.4"/>
<path fill="#00838F" d="M1246,149.4"/>
<polygon fill="#FAFAFA" points="1224.9,87.2 1234.7,95 1243.3,90.8 1260.8,92.8 1238.1,68.8 "/>
<polygon fill="#FAFAFA" points="1366,32.8 1337,72.1 1346,76.7 1356.7,68.8 1366,73.8 "/>
<polygon fill="#00796B" points="567.9,225.6 571.3,235.6 574.8,245.5 567.9,245.5 561,245.5 564.4,235.6 "/>
<polygon fill="#26A69A" points="583,219.6 584.7,225.6 586.4,231.7 583,231.7 579.5,231.7 581.2,225.6 "/>
<polygon fill="#00897B" points="854.7,226 857.4,236.1 860.1,246.3 854.7,246.3 849.3,246.3 852,236.1 "/>
<polygon fill="#00796B" points="873.5,211 876.3,222.5 879.1,233.9 873.5,233.9 867.9,233.9 870.7,222.5 "/>
<polygon fill="#00796B" points="812.5,190.5 815.3,198.7 818.1,206.9 812.5,206.9 806.9,206.9 809.7,198.7 "/>
<polygon fill="#00897B" points="825,198.7 827.2,206.9 829.4,215.2 825,215.2 820.7,215.2 822.9,206.9 "/>
<polygon fill="#00897B" points="1123.2,230.7 1126.6,243.5 1129.9,256.3 1123.2,256.3 1116.5,256.3 1119.8,243.5 "/>
<polygon fill="#26A69A" points="1145.5,229 1147.3,236.1 1149.2,243.3 1145.5,243.3 1141.7,243.3 1143.6,236.1 "/>
<polygon fill="#00796B" points="1210.8,133.5 1213.2,144.5 1215.7,155.4 1210.2,155.3 1204.8,155.2 1207.8,144.3 "/>
<polygon fill="#26A69A" points="1222.7,153.6 1225.1,161.3 1227.6,169.1 1222.7,169.1 1217.9,169.1 1220.3,161.3 "/>
<polygon fill="#00897B" points="1232.3,138.8 1234.7,145.8 1237,152.9 1232.3,152.9 1227.6,152.9 1229.9,145.8 "/>
<polygon fill="#00796B" points="1295.4,204.9 1297.9,215.8 1300.4,226.8 1294.9,226.7 1289.5,226.6 1292.4,215.7 "/>
<polygon fill="#00796B" points="1315,192.5 1317.5,201.2 1320,209.9 1314.6,209.7 1309.1,209.6 1312.1,201 "/>
<polygon fill="#26A69A" points="1309.1,218.9 1311.6,226.8 1314.1,234.8 1309.1,234.8 1304.1,234.8 1306.6,226.8 "/>
<polygon fill="#26A69A" points="238.6,228.5 240.6,235.6 242.6,242.6 238.6,242.6 234.5,242.6 236.5,235.6 "/>
<polygon fill="#00897B" points="342.9,140.3 344.7,146.8 346.6,153.3 342.9,153.3 339.1,153.3 341,146.8 "/>
<polygon fill="#00796B" points="102.9,178.8 105.7,188.7 108.6,198.7 102.9,198.7 97.2,198.7 100,188.7 "/>
<polygon fill="#26A69A" points="117,172.9 119,178.8 121,184.6 117,184.6 113,184.6 115,178.8 "/>
<polygon fill="#00897B" points="121,190.8 123.2,198.7 125.5,206.5 121,206.5 116.6,206.5 118.8,198.7 "/>
<polygon fill="#26A69A" points="36.7,148.7 38.8,155.7 40.8,162.8 36.7,162.8 32.7,162.8 34.7,155.7 "/>
<polygon fill="#00796B" points="23.4,158.6 26.9,168.6 30.3,178.5 23.4,178.5 16.5,178.5 20,168.6 "/>
<polygon fill="#00897B" points="50.6,153.6 52.9,161.8 55.2,169.9 50.6,169.9 46,169.9 48.3,161.8 "/>
<polygon fill="#00796B" points="40.8,173.1 43.1,178.8 45.4,184.4 40.8,184.4 36.1,184.4 38.4,178.8 "/>
<polygon fill="#00897B" points="66.5,221.4 69.5,232 72.5,242.6 66.5,242.6 60.5,242.6 63.5,232 "/>
</svg>
