<?xml version="1.0" encoding="utf-8"?>
<!-- Generator: Adobe Illustrator 19.1.1, SVG Export Plug-In . SVG Version: 6.00 Build 0)  -->
<svg version="1.1" id="Layer_1" xmlns="http://www.w3.org/2000/svg" xmlns:xlink="http://www.w3.org/1999/xlink" x="0px" y="0px"
	 viewBox="143 786 1366 350" style="enable-background:new 143 786 1366 350;" xml:space="preserve">
<style type="text/css">
	.st0{fill:#0097A7;}
	.st1{fill:#00838F;}
	.st2{fill:#00796B;}
	.st3{fill:#26A69A;}
	.st4{fill:#00897B;}
	.st5{fill:#FAFAFA;}
</style>
<g>
	<polygon class="st0" points="893.9,1135.7 144.1,1135.7 144.1,951.8 196.1,951.8 219.5,937.6 255.5,967.3 264.1,955.7 277.2,964.2 
		300.8,931.7 307.9,941.1 336.1,894.4 349.9,907.2 377.7,882.2 405.3,899.4 441.1,907.2 501.9,875.3 524.9,902 546.6,882.2 
		582.9,921.8 605.1,907.2 631.9,930.8 657.9,903 695.9,974.5 714.9,956.1 738.6,983.7 748.9,977 772.9,1028.7 800.9,995 
		819.9,1025.8 827.9,1015.3 844.6,1044.4 859.9,1085.4 871.9,1064.5 	"/>
	<path class="st0" d="M1508.9,903.7v231.9h-607l15.5-60.7l11.4,7.6l19.6-73.8l34.7-47.6l22.1,12.7l24.9-18.9l23.7,10.5l9.3-46.2
		l15.5,9.7l24-40.1l25.6,36.5l12.4-15.5l48.5,23.1l18.6-44l15.9,16.8l6.8-3.6l34.5,41.6l43.9-24.3l22.7,17.1l15.6-11l44.6,14.2
		c0,0,27.7-22.5,32.5-22.2c4.8,0.3,52,16.9,52,16.9L1508.9,903.7z"/>
	<polygon class="st1" points="1509,862.8 1509,1136.1 143,1136.1 143,931.2 158.1,938.2 165.1,928.2 194.9,934.4 232,985.6 
		264,947.6 319.9,1029.5 424.2,869.1 443.5,883 462.1,869.1 492.2,883 492.2,883 561.8,970.7 604,907.7 618.1,922.3 626.8,913 
		641.1,918.5 705.8,1032.2 750.8,964.2 818.8,1073.7 857.8,1028.7 910.8,1065.3 948.8,986.7 987.7,1007.5 1024.8,936.7 
		1088.9,973.1 1114.7,882.7 1132.8,889 1142.8,875.7 1162.8,882.7 1164.6,876.6 1217.5,934 1237.8,897.7 1319,988.5 1368,918.4 
		1377.7,926.4 1386.4,922.1 1403.8,924.2 1437.9,960.8 1438.1,961.1 1457.3,934.4 1486.9,928.3 1493.9,938.3 1508.9,931.3 
		1508.9,863 	"/>
	<polygon class="st2" points="421.1,952.8 424.5,965.2 428,977.7 421.1,977.7 414.2,977.7 417.6,965.2 	"/>
	<polygon class="st3" points="436.7,938.6 439.2,947.6 441.7,956.7 436.7,956.7 431.7,956.7 434.2,947.6 	"/>
	<polygon class="st2" points="448.7,945.4 452.2,958.1 455.8,970.7 448.7,970.7 441.7,970.7 445.2,958.1 	"/>
	<polygon class="st4" points="437.4,971 439.3,977.7 441.1,984.3 437.4,984.3 433.7,984.3 435.6,977.7 	"/>
	<polygon class="st3" points="382.7,1001.7 385.2,1009 387.7,1016.3 382.7,1016.3 377.7,1016.3 380.2,1009 	"/>
	<polygon class="st2" points="546.6,1006.2 550,1016.3 553.5,1026.5 546.6,1026.5 539.7,1026.5 543.1,1016.3 	"/>
	<polygon class="st4" points="536.2,997.9 538.5,1006.2 540.8,1014.5 536.2,1014.5 531.6,1014.5 533.9,1006.2 	"/>
	<polygon class="st2" points="559.3,993.2 561.7,1004.8 564,1016.3 559.3,1016.3 554.7,1016.3 557,1004.8 	"/>
	<polygon class="st3" points="532.2,1022.2 534.2,1029.5 536.2,1036.7 532.2,1036.7 528.2,1036.7 530.2,1029.5 	"/>
	<polygon class="st2" points="638.8,958.2 642.3,968.3 645.7,978.5 638.8,978.5 631.9,978.5 635.4,968.3 	"/>
	<polygon class="st4" points="653.3,968.3 655.6,975.2 657.9,982 653.3,982 648.7,982 651,975.2 	"/>
	<polygon class="st3" points="642.5,982.3 644.2,988.5 645.9,994.7 642.5,994.7 639,994.7 640.8,988.5 	"/>
	<polygon class="st4" points="1045.4,1000.9 1048.1,1011.3 1050.8,1021.7 1045.4,1021.7 1040,1021.7 1042.7,1011.3 	"/>
	<polygon class="st3" points="1057.9,995.7 1060.4,1001 1062.9,1006.4 1057.9,1006.4 1052.9,1006.4 1055.4,1001 	"/>
	<polygon class="st2" points="1041.1,981.5 1044,989 1046.8,996.5 1041.1,996.5 1035.5,996.5 1038.3,989 	"/>
	<polygon class="st4" points="1182.6,1016 1185.9,1029.1 1189.3,1042.3 1182.6,1042.3 1175.8,1042.3 1179.2,1029.1 	"/>
	<polygon class="st2" points="1160.6,1016 1163.5,1022.6 1166.3,1029.2 1160.6,1029.2 1155,1029.2 1157.8,1022.6 	"/>
	<polygon class="st3" points="1170,1006.4 1171.9,1013.8 1173.8,1021.1 1170,1021.1 1166.3,1021.1 1168.2,1013.8 	"/>
	<polygon class="st4" points="1183.6,922.2 1185.9,931.4 1188.3,940.6 1183.6,940.6 1178.8,940.6 1181.2,931.4 	"/>
	<polygon class="st3" points="1172.9,918.4 1174.7,924.2 1176.4,929.9 1172.9,929.9 1169.4,929.9 1171.1,924.2 	"/>
	<polygon class="st4" points="1162.5,926.4 1165.2,935.3 1167.9,944.2 1162.5,944.2 1157.1,944.2 1159.8,935.3 	"/>
	<polyline class="st2" points="1175.9,954.4 1173.8,954.4 1169.3,954.4 1171.6,945.8 1173.8,937.1 1176.1,945.8 1178.3,954.4 
		1175.9,954.4 	"/>
	<polygon class="st3" points="1126.5,907.7 1128.4,915 1130.3,922.4 1126.5,922.4 1122.8,922.4 1124.7,915 	"/>
	<polygon class="st4" points="1272.1,967.2 1274.4,976.4 1276.8,985.6 1272.1,985.6 1267.3,985.6 1269.7,976.4 	"/>
	<polyline class="st2" points="1283.4,994.3 1281.3,994.3 1276.8,994.3 1279.1,985.6 1281.3,976.9 1283.6,985.6 1285.8,994.3 
		1283.4,994.3 	"/>
	<polygon class="st3" points="1290.8,971.2 1292.6,976.9 1294.4,982.7 1290.8,982.7 1287.3,982.7 1289.1,976.9 	"/>
	<path class="st1" d="M1390.1,982"/>
	<path class="st1" d="M1390.1,982"/>
	<polygon class="st2" points="712,1060 715.5,1070.2 718.9,1080.3 712,1080.3 705.1,1080.3 708.6,1070.2 	"/>
	<polygon class="st3" points="727.1,1053.8 728.8,1060 730.5,1066.2 727.1,1066.2 723.6,1066.2 725.4,1060 	"/>
	<polygon class="st4" points="998.9,1060.3 1001.6,1070.7 1004.3,1081.2 998.9,1081.2 993.5,1081.2 996.2,1070.7 	"/>
	<polygon class="st2" points="1017.6,1045.1 1020.5,1056.8 1023.3,1068.5 1017.6,1068.5 1012,1068.5 1014.8,1056.8 	"/>
	<polygon class="st3" points="1013.2,1075.8 1015.7,1081.2 1018.2,1086.5 1013.2,1086.5 1008.2,1086.5 1010.7,1081.2 	"/>
	<polygon class="st2" points="956.6,1024.1 959.5,1032.5 962.3,1040.9 956.6,1040.9 951,1040.9 953.8,1032.5 	"/>
	<polygon class="st4" points="969.2,1032.5 971.3,1040.9 973.5,1049.3 969.2,1049.3 964.8,1049.3 967,1040.9 	"/>
	<polygon class="st4" points="1267.3,1065.1 1270.7,1078.3 1274.1,1091.4 1267.3,1091.4 1260.6,1091.4 1264,1078.3 	"/>
	<polygon class="st3" points="1289.6,1063.4 1291.5,1070.7 1293.4,1078.1 1289.6,1078.1 1285.8,1078.1 1287.7,1070.7 	"/>
	<polygon class="st2" points="1281.3,1080.2 1284.1,1091.4 1286.9,1102.5 1281.3,1102.5 1275.7,1102.5 1278.5,1091.4 	"/>
	<polygon class="st2" points="1354.9,965.8 1357.4,977 1359.8,988.2 1354.4,988.1 1348.9,988 1351.9,976.9 	"/>
	<polygon class="st3" points="1366.8,986.3 1369.3,994.3 1371.7,1002.2 1366.8,1002.2 1362,1002.2 1364.4,994.3 	"/>
	<polygon class="st4" points="1376.4,971.2 1378.8,978.4 1381.2,985.6 1376.4,985.6 1371.7,985.6 1374.1,978.4 	"/>
	<polygon class="st2" points="1439.6,1038.8 1442,1050 1444.5,1061.2 1439,1061.1 1433.6,1061 1436.6,1049.9 	"/>
	<polygon class="st2" points="1459.1,1026.1 1461.6,1035 1464.2,1043.9 1458.7,1043.7 1453.3,1043.6 1456.2,1034.8 	"/>
	<polygon class="st3" points="1453.3,1053.1 1455.7,1061.2 1458.2,1069.3 1453.3,1069.3 1448.3,1069.3 1450.8,1061.2 	"/>
	<polygon class="st2" points="394.6,1070.2 398.1,1080.3 401.5,1090.5 394.6,1090.5 387.7,1090.5 391.1,1080.3 	"/>
	<polygon class="st3" points="382.7,1063 384.7,1070.2 386.7,1077.4 382.7,1077.4 378.7,1077.4 380.7,1070.2 	"/>
	<polygon class="st4" points="370,1073.7 371.8,1080.3 373.7,1087 370,1087 366.3,1087 368.1,1080.3 	"/>
	<polygon class="st4" points="487,972.7 488.8,979.3 490.7,986 487,986 483.3,986 485.1,979.3 	"/>
	<polygon class="st2" points="360.9,1080.9 363.6,1090.5 366.3,1100.2 360.9,1100.2 355.5,1100.2 358.2,1090.5 	"/>
	<polygon class="st2" points="247,1012.1 249.8,1022.2 252.7,1032.4 247,1032.4 241.3,1032.4 244.2,1022.2 	"/>
	<polygon class="st3" points="261.1,1006.1 263.1,1012.1 265.1,1018 261.1,1018 257.1,1018 259.1,1012.1 	"/>
	<polygon class="st4" points="265.1,1024.4 267.4,1032.4 269.6,1040.4 265.1,1040.4 260.7,1040.4 262.9,1032.4 	"/>
	<polygon class="st3" points="180.9,981.3 182.9,988.5 184.9,995.7 180.9,995.7 176.9,995.7 178.9,988.5 	"/>
	<polygon class="st2" points="167.6,991.5 171,1001.7 174.5,1011.8 167.6,1011.8 160.7,1011.8 164.1,1001.7 	"/>
	<polygon class="st4" points="194.7,986.4 197,994.7 199.3,1003 194.7,1003 190.1,1003 192.4,994.7 	"/>
	<polygon class="st2" points="184.9,1006.3 187.2,1012.1 189.5,1017.8 184.9,1017.8 180.3,1017.8 182.6,1012.1 	"/>
	<polygon class="st3" points="197.2,1073.5 199.7,1080.9 202.2,1088.2 197.2,1088.2 192.2,1088.2 194.7,1080.9 	"/>
	<polygon class="st4" points="210.6,1055.7 213.6,1066.5 216.7,1077.4 210.6,1077.4 204.6,1077.4 207.6,1066.5 	"/>
	<polygon class="st5" points="143,862.9 143,931.3 158.1,938.3 165.1,928.3 195,934.5 	"/>
	<polygon class="st5" points="425.3,869.1 444.6,883 463.2,869.1 493.3,883 450.9,829.7 	"/>
	<polygon class="st5" points="621.9,882.7 605.1,907.7 619.2,922.3 627.9,913 642.6,918.6 	"/>
	<polygon class="st5" points="1128.9,836.7 1115.8,882.7 1133.9,889 1143.9,875.7 1163.9,882.7 1165.7,876.6 	"/>
	<polygon class="st5" points="1369.1,918.4 1378.8,926.4 1387.5,922.2 1404.9,924.2 1382.2,899.6 	"/>
	<polygon class="st5" points="1508.9,862.8 1508.9,931.2 1493.9,938.2 1486.9,928.2 1457,934.5 	"/>
</g>
</svg>
