<?xml version="1.0" encoding="utf-8"?>
<!-- Generator: Adobe Illustrator 19.1.1, SVG Export Plug-In . SVG Version: 6.00 Build 0)  -->
<svg version="1.1" id="Layer_1" xmlns="http://www.w3.org/2000/svg" xmlns:xlink="http://www.w3.org/1999/xlink" x="0px" y="0px"
	 viewBox="0 0 400 400" style="enable-background:new 0 0 400 400;" xml:space="preserve">
<g>
	<polygon style="fill:#8C6239;" points="400,160.2 400,400 138,400 138,301.8 337.6,97.1 337.8,97 	"/>
	<path style="fill:#EFEFEF;" d="M400,136.9v10.2l-62.4-62.9L123.8,303.1l6.7,6.5l3-3c-2,3.6-5.3,5.6-8.1,4.8
		c-3.3-1-4.7-5.7-3.4-10.7c-2.4-3.8,4.2-15.3,15.3-26.3c6.1-6.1,12.3-10.8,17.3-13.4c4.6-5.3,10.2-11.3,16.3-17.4
		c3.8-3.8,7.6-7.4,11.1-10.7c-0.3-0.1-0.5-0.2-0.7-0.4c-2-2.6,14.1-17.9,35.8-34c1.4-1,2.8-2.1,4.2-3.1c-0.2-0.1-0.4-0.3-0.5-0.4
		c-2-2.6,10.6-15.4,28.2-28.4c2.4-1.8,5-3.5,7-5.1v0c5.2-7.1,12.4-15.9,20.7-25.2c12.8-14.2,24.9-25.6,31.7-30.4c0,0,0.1,0,0.1-0.1
		c2.6-3.5,7.7-7.8,14.2-11.8c1.1-1.9,3-4.3,5.5-6.4c4.2-3.5,8.7-5.8,10.8-4.8h0.1c0,0,0,0,0,0c1.1,0,2.9,1.1,5.2,2.6c0,0,0,0,0,0.1
		c1.6,0,2.7,0.4,3.2,1.3c0.2,0.3,0.3,0.8,0.3,1.2c7.1,5.3,17.3,14.3,28.1,25.2c8.2,8.3,15.3,16.3,20.5,22.8
		C397.5,136.3,399,136.6,400,136.9z"/>
	<g id="Ice">
		<g>
			<polygon style="fill:#B1CBE5;" points="400,164.9 397.2,181.6 390.5,160.2 380.8,157.4 375.4,142.5 371.9,146.1 368.8,135.8 
				366.6,151.9 364.5,133.8 363.1,138.4 356.6,118.2 348.1,118.5 341.7,104.5 335.9,117 330.9,106.1 323.8,129.8 319.8,117.3 
				317.4,125 312,124 310,154.2 302.3,136.5 295.2,146.5 290.2,147.3 290.1,147.3 286.5,163 282,155.6 279.2,165.8 269,169.4 
				269,169.4 269,169.4 265.7,192.5 263.8,176.5 259.8,187.3 256.3,184.2 256.1,184.6 251.3,194.3 236.2,203.9 231.5,231.8 
				226.3,215.2 217.4,223.3 217.9,233 206.8,232.2 204.8,256.2 198.8,245.5 194.4,257.6 190.8,250.9 184.1,257 183.3,267 
				170.6,270.1 167.6,286.4 163.9,277 166.8,305 155.9,285.9 154,290.8 153.9,291.2 151.4,297.8 146.3,298 143.8,298.2 143.5,300.6 
				141.3,319.7 136.8,306.7 134.9,308.4 136.8,330.3 131.1,315.4 128,344.4 124.4,303.7 130.5,309.6 337.8,97.1 400,160.3 			"/>
		</g>
	</g>
	<g id="House">
		<rect x="301.7" y="203.3" style="fill:#684121;" width="43.7" height="68.1"/>
		
			<rect x="308.9" y="211.9" style="fill:#C68228;stroke:#684121;stroke-width:4.0547;stroke-miterlimit:10;" width="29.1" height="51.6"/>
		<g>
			<ellipse style="fill:#EFEFEF;" cx="279.7" cy="271.4" rx="9.5" ry="2.3"/>
			<ellipse style="fill:#EFEFEF;" cx="354.1" cy="271.4" rx="8" ry="2.3"/>
			<ellipse style="fill:#EFEFEF;" cx="286.7" cy="270.6" rx="5.5" ry="3.2"/>
			<ellipse style="fill:#EFEFEF;" cx="363.7" cy="270.6" rx="5.5" ry="3.2"/>
			<ellipse style="fill:#EFEFEF;" cx="292.2" cy="272.2" rx="5.5" ry="3.2"/>
			<ellipse style="fill:#EFEFEF;" cx="301.7" cy="270.6" rx="5.5" ry="3.2"/>
			<ellipse style="fill:#EFEFEF;" cx="307.9" cy="272.2" rx="6.2" ry="3.2"/>
			<ellipse style="fill:#EFEFEF;" cx="318.3" cy="272.2" rx="6.2" ry="4"/>
			<ellipse style="fill:#EFEFEF;" cx="328.9" cy="272.2" rx="8.5" ry="4"/>
			<ellipse style="fill:#EFEFEF;" cx="370.8" cy="272.2" rx="7.1" ry="4"/>
			<ellipse style="fill:#EFEFEF;" cx="339" cy="273.5" rx="6.4" ry="3.9"/>
			<ellipse style="fill:#EFEFEF;" cx="346.2" cy="272.2" rx="6.4" ry="3.9"/>
		</g>
		<rect x="267.9" y="271.4" style="fill:#774A28;" width="111.3" height="16.5"/>
		<line style="fill:none;stroke:#774A28;stroke-width:5.2;stroke-miterlimit:10;" x1="297.5" y1="238.1" x2="297.5" y2="271.4"/>
		<line style="fill:none;stroke:#774A28;stroke-width:5.2;stroke-miterlimit:10;" x1="323.5" y1="238.1" x2="323.5" y2="271.4"/>
		<line style="fill:none;stroke:#774A28;stroke-width:5.2;stroke-miterlimit:10;" x1="349.5" y1="238.1" x2="349.5" y2="271.4"/>
		<line style="fill:none;stroke:#774A28;stroke-width:5.2;stroke-miterlimit:10;" x1="375.5" y1="238.1" x2="375.5" y2="271.4"/>
		<circle style="fill:#472913;" cx="341.5" cy="239.2" r="2.9"/>
		<line style="fill:none;stroke:#774A28;stroke-width:5.2;stroke-miterlimit:10;" x1="272" y1="238.1" x2="272" y2="271.4"/>
		<rect x="267.9" y="239.4" style="fill:#774A28;" width="113.4" height="5.2"/>
		<rect x="248.2" y="325.5" style="fill:#684121;" width="43.7" height="74.4"/>
		<circle style="fill:#472913;" cx="286.4" cy="369.2" r="4.2"/>
		
			<rect x="255.4" y="330.7" style="fill:#C68228;stroke:#684121;stroke-width:4.0547;stroke-miterlimit:10;" width="29.1" height="31.2"/>
		<line style="fill:none;stroke:#684121;stroke-width:2.08;stroke-miterlimit:10;" x1="269.9" y1="325.5" x2="269.9" y2="369.2"/>
		<line style="fill:none;stroke:#684121;stroke-width:2.08;stroke-miterlimit:10;" x1="248.1" y1="346.3" x2="291.8" y2="346.3"/>
		
			<rect x="319" y="136.1" style="fill:#C96827;stroke:#684121;stroke-width:4.0547;stroke-miterlimit:10;" width="39.2" height="36.7"/>
		<line style="fill:none;stroke:#684121;stroke-width:1.5243;stroke-miterlimit:10;" x1="338.6" y1="136.1" x2="338.6" y2="172.9"/>
		<line style="fill:none;stroke:#684121;stroke-width:1.6768;stroke-miterlimit:10;" x1="318.7" y1="154.5" x2="358.6" y2="154.5"/>
		<g>
			
				<rect x="314.1" y="315.1" style="fill:#C65C28;stroke:#684121;stroke-width:4.0547;stroke-miterlimit:10;" width="72.2" height="51.6"/>
			
				<line style="fill:none;stroke:#684121;stroke-width:4.0547;stroke-miterlimit:10;" x1="350.2" y1="315.1" x2="350.2" y2="366.6"/>
			
				<line style="fill:none;stroke:#684121;stroke-width:4.0547;stroke-miterlimit:10;" x1="313.5" y1="340.9" x2="386.9" y2="340.9"/>
		</g>
		
			<rect x="173.2" y="315.1" style="fill:#C96827;stroke:#684121;stroke-width:4.0547;stroke-miterlimit:10;" width="58.3" height="51.6"/>
		<line style="fill:none;stroke:#684121;stroke-width:2.2028;stroke-miterlimit:10;" x1="202.3" y1="315.1" x2="202.3" y2="366.6"/>
		<line style="fill:none;stroke:#684121;stroke-width:2.4231;stroke-miterlimit:10;" x1="172.7" y1="340.9" x2="232" y2="340.9"/>
	</g>
	<polygon id="Roof" style="fill:#59351C;" points="337.6,84.2 123.8,303.1 130.5,309.6 337.8,97.1 400,160.3 400,147.1 	"/>
	<path style="fill:#EFEFEF;" d="M400,385.4c-3-1.6-6.4-2.6-10.4-2.7c-6.5-0.2-12.1,2.1-14.9,5.5c0,0-0.1,0.1-0.1,0.1
		c-0.5,0-1-0.1-1.6-0.1c-0.4,0-0.9,0.1-1.3,0.1c-0.1-0.1-0.1-0.2-0.2-0.2c0,0,0,0.1-0.1,0.1c-3-3.7-10.4-6.3-19.1-6.3h-0.3
		c-6.7,0-12.6,1.4-16.3,3.9c-0.9-0.1-1.9-0.2-2.9-0.2c-4.5,0-8.6,0.8-11.7,2.2c-3.7-2-8.8-3.2-14.4-3.2c-0.2,0-0.4,0-0.5,0
		c-5.7,0.1-10.7,1.4-14.3,3.5c0,0-0.1,0-0.1,0.1c-2.1,1.2-3.6,2.7-4.5,4.3c0,0,0,0,0,0c0,0,0,0.1-0.1,0.1
		c-5.9-0.5-12.5-0.8-19.3-0.8c-5.1,0-9.9,0.3-14.5,0.3c-0.7-1.8-2.5-3.3-5.1-4.6c-3.6-1.7-8.6-2.7-14.1-2.7
		c-6.4,0-12.1,1.4-15.7,3.6c0,0,0,0,0,0c-4.5-1.3-10.1-2.2-16-2.2c-0.5,0-1-0.2-1.4-0.2h0c-4.1-5-14.1-9.2-25.9-9.2
		c-10.2,0-18.8,3-24,7.4c-3.8-0.9-8-1.6-12.5-2c-3.1-0.3-6.4-0.4-9.7-0.4c-6.7,0-13,0.6-18.7,1.7c0,0,0,0,0,0
		c-0.2,0-0.5,0.1-0.7,0.1c0.2,0,0.5-0.1,0.7-0.1c-6.2-3.2-14.8-5.4-24.4-5.4h0c-3.2-5-11.9-7.6-22.2-7.6c-13,0-23.5,5.1-23.5,11.4
		c0,0.1,0,0.2,0,0.2c-9.6,1-17,4.9-18.3,9.8c-0.5,0-1-0.1-1.4-0.1c-0.2,0-0.4,0-0.6,0c-6.5,0-11.7,2.8-11.7,6.2
		c0,0.7,0.2,1.4,0.6,1.9c0,0,308.8,0.1,308.8,0.2c0,0,82.7-0.2,82.7-0.2V385.4z"/>
</g>
</svg>
