<?xml version="1.0" encoding="utf-8"?>
<!-- Generator: Adobe Illustrator 19.1.1, SVG Export Plug-In . SVG Version: 6.00 Build 0)  -->
<svg version="1.1" id="Layer_1" xmlns="http://www.w3.org/2000/svg" xmlns:xlink="http://www.w3.org/1999/xlink" x="0px" y="0px"
	 viewBox="0 0 200 100" style="enable-background:new 0 0 200 100;" xml:space="preserve">
<g>
	<g>
		<rect x="179" y="76" style="fill:#EFEFEF;" width="14" height="15"/>
		<path style="fill:#EFEFEF;" d="M74.3,34.9c-1.7-4.9-4.2-9.2-7.5-12.9c-3.3-3.7-7.5-6.6-12.5-8.8c-5-2.1-10.8-3.3-17.4-3.3H8v81
			h28.8c6.1,0,11.6-0.8,16.5-2.7c4.9-2,9.1-4.2,12.6-7.7c3.5-3.5,6.2-7.9,8.1-12.9c1.8-5,2.8-10.7,2.8-16.8
			C76.9,45.3,76,39.9,74.3,34.9z"/>
	</g>
	<path style="fill:#EFEFEF;" d="M173.2,52c-1.5,21-18.9,37.8-40.2,37.8c-22.2,0-40.3-17.8-40.3-40s18.2-40,40.2-40V52H173.2z"/>
</g>
</svg>
