<?xml version="1.0" encoding="utf-8"?>
<!-- Generator: Adobe Illustrator 19.1.1, SVG Export Plug-In . SVG Version: 6.00 Build 0)  -->
<svg version="1.1" id="Layer_1" xmlns="http://www.w3.org/2000/svg" xmlns:xlink="http://www.w3.org/1999/xlink" x="0px" y="0px"
	 viewBox="0 0 1410 320" style="enable-background:new 0 0 1410 320;" xml:space="preserve">
<g>
	<polygon style="fill:#768A99;" points="774.1,319.7 0.1,319.7 0.1,129.9 53.8,129.9 77.9,115.2 115.1,145.9 124,133.9 137.5,142.7 
		161.9,109.1 169.2,118.8 198.3,70.6 212.5,83.9 241.2,58 269.7,75.8 306.7,83.9 369.4,50.9 393.2,78.5 415.6,58 453,98.9 476,83.9 
		503.6,108.2 530.5,79.5 569.7,153.3 589.3,134.3 613.8,162.8 624.4,155.9 649.2,209.3 678.1,174.5 697.7,206.3 705.9,195.4 
		723.2,225.5 739,267.8 751.4,246.2 	"/>
	<path style="fill:#768A99;" d="M1409.8,80.4v239.4H783.2l16-62.7L811,265l20.2-76.2l35.9-49.1l22.8,13.1l25.7-19.5l24.4,10.8
		l9.6-47.7l16,10L990.1,65l26.4,37.7l12.8-16l50.1,23.8l19.2-45.4l16.4,17.3l7-3.7l35.7,42.9l45.3-25.1l23.4,17.7l16.1-11.4
		l46.1,14.7c0,0,28.6-23.2,33.6-22.9c4.9,0.3,53.7,17.4,53.7,17.4L1409.8,80.4z"/>
	<polygon style="fill:#647A8E;" points="1409.9,38.2 1409.9,320.3 -0.1,320.3 -0.1,108.8 15.5,116 22.7,105.7 53.5,112.1 
		91.8,164.9 124.8,125.7 182.5,210.2 290.1,44.7 310.1,59 329.3,44.7 360.3,59 360.3,59 432.2,149.6 475.7,84.5 490.3,99.6 
		499.3,90 514,95.7 580.8,213 627.3,142.8 697.5,255.9 737.7,209.4 792.4,247.2 831.7,166.1 871.8,187.5 910.1,114.5 976.3,152 
		1002.9,58.7 1021.6,65.2 1031.9,51.5 1052.5,58.7 1054.4,52.4 1109,111.7 1130,74.2 1213.8,167.9 1264.4,95.6 1274.4,103.8 
		1283.3,99.4 1301.3,101.6 1336.5,139.3 1336.7,139.6 1356.5,112.1 1387.1,105.8 1394.3,116.1 1409.8,108.9 1409.8,38.4 	"/>
	<polygon style="fill:#506A70;" points="287,131.1 290.5,143.9 294.1,156.8 287,156.8 279.8,156.8 283.3,143.9 	"/>
	<polygon style="fill:#68888E;" points="303.1,116.4 305.6,125.7 308.2,135.1 303.1,135.1 297.9,135.1 300.5,125.7 	"/>
	<polygon style="fill:#506A70;" points="315.4,123.4 319.1,136.5 322.8,149.6 315.4,149.6 308.2,149.6 311.8,136.5 	"/>
	<polygon style="fill:#59777C;" points="303.8,149.9 305.7,156.8 307.6,163.6 303.8,163.6 300,163.6 301.9,156.8 	"/>
	<polygon style="fill:#68888E;" points="247.3,181.6 249.9,189.1 252.5,196.6 247.3,196.6 242.2,196.6 244.7,189.1 	"/>
	<polygon style="fill:#506A70;" points="416.5,186.2 420,196.6 423.6,207.2 416.5,207.2 409.4,207.2 412.9,196.6 	"/>
	<polygon style="fill:#59777C;" points="405.8,177.6 408.1,186.2 410.5,194.8 405.8,194.8 401,194.8 403.4,186.2 	"/>
	<polygon style="fill:#506A70;" points="429.6,172.8 432.1,184.8 434.5,196.6 429.6,196.6 424.9,196.6 427.2,184.8 	"/>
	<polygon style="fill:#68888E;" points="401.6,202.7 403.7,210.2 405.8,217.7 401.6,217.7 397.5,217.7 399.6,210.2 	"/>
	<polygon style="fill:#506A70;" points="511.7,136.7 515.3,147.1 518.8,157.6 511.7,157.6 504.5,157.6 508.2,147.1 	"/>
	<polygon style="fill:#59777C;" points="526.6,147.1 529,154.2 531.4,161.2 526.6,161.2 521.9,161.2 524.3,154.2 	"/>
	<polygon style="fill:#68888E;" points="515.5,161.5 517.2,167.9 519,174.3 515.5,174.3 511.9,174.3 513.7,167.9 	"/>
	<polygon style="fill:#59777C;" points="931.4,180.7 934.1,191.5 936.9,202.2 931.4,202.2 925.8,202.2 928.6,191.5 	"/>
	<polygon style="fill:#68888E;" points="944.3,175.4 946.8,180.8 949.4,186.4 944.3,186.4 939.1,186.4 941.7,180.8 	"/>
	<polygon style="fill:#506A70;" points="926.9,160.7 929.9,168.4 932.8,176.2 926.9,176.2 921.1,176.2 924,168.4 	"/>
	<polygon style="fill:#59777C;" points="1073,196.3 1076.4,209.8 1079.9,223.5 1073,223.5 1066,223.5 1069.5,209.8 	"/>
	<polygon style="fill:#506A70;" points="1050.3,196.3 1053.3,203.1 1056.2,209.9 1050.3,209.9 1044.5,209.9 1047.4,203.1 	"/>
	<polygon style="fill:#68888E;" points="1060,186.4 1061.9,194 1063.9,201.6 1060,201.6 1056.2,201.6 1058.1,194 	"/>
	<polygon style="fill:#59777C;" points="1074,99.5 1076.4,109 1078.9,118.5 1074,118.5 1069.1,118.5 1071.5,109 	"/>
	<polygon style="fill:#68888E;" points="1063,95.6 1064.8,101.6 1066.6,107.4 1063,107.4 1059.4,107.4 1061.1,101.6 	"/>
	<polygon style="fill:#59777C;" points="1052.2,103.8 1055,113 1057.8,122.2 1052.2,122.2 1046.7,122.2 1049.4,113 	"/>
	<polyline style="fill:#506A70;" points="1066.1,132.7 1063.9,132.7 1059.3,132.7 1061.6,123.9 1063.9,114.9 1066.3,123.9 
		1068.5,132.7 1066.1,132.7 	"/>
	<polygon style="fill:#68888E;" points="1015.1,84.5 1017,92.1 1019,99.7 1015.1,99.7 1011.3,99.7 1013.2,92.1 	"/>
	<polygon style="fill:#59777C;" points="1165.4,145.9 1167.7,155.4 1170.2,164.9 1165.4,164.9 1160.4,164.9 1162.9,155.4 	"/>
	<polyline style="fill:#506A70;" points="1177,173.9 1174.9,173.9 1170.2,173.9 1172.6,164.9 1174.9,156 1177.2,164.9 1179.5,173.9 
		1177,173.9 	"/>
	<polygon style="fill:#68888E;" points="1184.7,150.1 1186.5,156 1188.4,161.9 1184.7,161.9 1181.1,161.9 1182.9,156 	"/>
	<path style="fill:#00838F;" d="M1287.2,161.2"/>
	<path style="fill:#00838F;" d="M1287.2,161.2"/>
	<polygon style="fill:#506A70;" points="587.2,241.7 590.8,252.3 594.3,262.7 587.2,262.7 580.1,262.7 583.7,252.3 	"/>
	<polygon style="fill:#68888E;" points="602.8,235.3 604.6,241.7 606.3,248.1 602.8,248.1 599.2,248.1 601.1,241.7 	"/>
	<polygon style="fill:#59777C;" points="883.4,242 886.2,252.8 888.9,263.6 883.4,263.6 877.8,263.6 880.6,252.8 	"/>
	<polygon style="fill:#506A70;" points="902.7,226.4 905.7,238.4 908.6,250.5 902.7,250.5 896.9,250.5 899.8,238.4 	"/>
	<polygon style="fill:#68888E;" points="898.1,258 900.7,263.6 903.3,269.1 898.1,269.1 893,269.1 895.5,263.6 	"/>
	<polygon style="fill:#506A70;" points="839.7,204.7 842.7,213.3 845.6,222 839.7,222 833.9,222 836.8,213.3 	"/>
	<polygon style="fill:#59777C;" points="852.7,213.3 854.9,222 857.1,230.7 852.7,230.7 848.2,230.7 850.4,222 	"/>
	<polygon style="fill:#59777C;" points="1160.4,247 1163.9,260.6 1167.4,274.1 1160.4,274.1 1153.5,274.1 1157,260.6 	"/>
	<polygon style="fill:#68888E;" points="1183.4,245.2 1185.4,252.8 1187.4,260.4 1183.4,260.4 1179.5,260.4 1181.5,252.8 	"/>
	<polygon style="fill:#506A70;" points="1174.9,262.6 1177.8,274.1 1180.6,285.6 1174.9,285.6 1169.1,285.6 1172,274.1 	"/>
	<polygon style="fill:#506A70;" points="1250.8,144.5 1253.4,156.1 1255.9,167.6 1250.3,167.5 1244.6,167.4 1247.7,156 	"/>
	<polygon style="fill:#68888E;" points="1263.1,165.7 1265.7,173.9 1268.2,182.1 1263.1,182.1 1258.2,182.1 1260.6,173.9 	"/>
	<polygon style="fill:#59777C;" points="1273,150.1 1275.5,157.5 1278,164.9 1273,164.9 1268.2,164.9 1270.7,157.5 	"/>
	<polygon style="fill:#506A70;" points="1338.3,219.8 1340.7,231.4 1343.3,243 1337.6,242.9 1332.1,242.8 1335.2,231.3 	"/>
	<polygon style="fill:#506A70;" points="1358.4,206.7 1361,215.9 1363.7,225.1 1358,224.9 1352.4,224.8 1355.4,215.7 	"/>
	<polygon style="fill:#68888E;" points="1352.4,234.6 1354.9,243 1357.5,251.3 1352.4,251.3 1347.2,251.3 1349.8,243 	"/>
	<polygon style="fill:#506A70;" points="259.6,252.3 263.2,262.7 266.7,273.2 259.6,273.2 252.5,273.2 256,262.7 	"/>
	<polygon style="fill:#68888E;" points="247.3,244.8 249.4,252.3 251.4,259.7 247.3,259.7 243.2,259.7 245.2,252.3 	"/>
	<polygon style="fill:#59777C;" points="234.2,255.9 236.1,262.7 238,269.6 234.2,269.6 230.4,269.6 232.2,262.7 	"/>
	<polygon style="fill:#59777C;" points="355,151.6 356.8,158.4 358.8,165.3 355,165.3 351.2,165.3 353,158.4 	"/>
	<polygon style="fill:#506A70;" points="224.8,263.3 227.6,273.2 230.4,283.2 224.8,283.2 219.2,283.2 222,273.2 	"/>
	<polygon style="fill:#506A70;" points="107.2,192.3 110.1,202.7 113.1,213.2 107.2,213.2 101.4,213.2 104.4,202.7 	"/>
	<polygon style="fill:#68888E;" points="121.8,186.1 123.9,192.3 125.9,198.4 121.8,198.4 117.7,198.4 119.7,192.3 	"/>
	<polygon style="fill:#59777C;" points="125.9,205 128.3,213.2 130.6,221.5 125.9,221.5 121.4,221.5 123.7,213.2 	"/>
	<polygon style="fill:#68888E;" points="39,160.5 41.1,167.9 43.1,175.4 39,175.4 34.9,175.4 36.9,167.9 	"/>
	<polygon style="fill:#506A70;" points="25.3,171 28.8,181.6 32.4,192 25.3,192 18.2,192 21.7,181.6 	"/>
	<polygon style="fill:#59777C;" points="53.3,165.8 55.6,174.3 58,182.9 53.3,182.9 48.5,182.9 50.9,174.3 	"/>
	<polygon style="fill:#506A70;" points="43.1,186.3 45.5,192.3 47.9,198.2 43.1,198.2 38.4,198.2 40.8,192.3 	"/>
	<polygon style="fill:#68888E;" points="55.8,255.7 58.4,263.3 61,270.8 55.8,270.8 50.7,270.8 53.3,263.3 	"/>
	<polygon style="fill:#59777C;" points="69.7,237.3 72.8,248.4 76,259.7 69.7,259.7 63.5,259.7 66.6,248.4 	"/>
	<polygon style="fill:#FAFAFA;" points="-0.1,38.2 -0.1,108.8 15.5,116.1 22.7,105.7 53.6,112.1 	"/>
	<polygon style="fill:#FAFAFA;" points="494.2,58.7 476.9,84.5 491.4,99.6 500.4,90 515.6,95.8 	"/>
	<polygon style="fill:#FAFAFA;" points="290,44.7 310,59 329.2,44.7 360.2,59 316.5,4 	"/>
	<polygon style="fill:#FAFAFA;" points="1016.6,11.2 1003,58.7 1021.7,65.2 1032,51.4 1052.7,58.7 1054.5,52.4 	"/>
	<polygon style="fill:#FAFAFA;" points="1265.5,95.6 1275.5,103.8 1284.5,99.5 1302.4,101.6 1279,76.2 	"/>
	<polygon style="fill:#FAFAFA;" points="1409.8,38.2 1409.8,108.8 1394.3,116 1387.1,105.7 1356.3,112.2 	"/>
</g>
</svg>
