<?xml version="1.0" encoding="utf-8"?>
<!-- Generator: Adobe Illustrator 19.1.1, SVG Export Plug-In . SVG Version: 6.00 Build 0)  -->
<svg version="1.1" id="Layer_1" xmlns="http://www.w3.org/2000/svg" xmlns:xlink="http://www.w3.org/1999/xlink" x="0px" y="0px"
	 viewBox="0 0 580 420" style="enable-background:new 0 0 580 420;" xml:space="preserve">
<rect x="0" y="404.4" style="fill:#B1CBE5;" width="167" height="16.5"/>
<g>
	<polygon style="fill:#8C6239;" points="580,117.5 580,420 250,420 250,296.3 501.6,37.8 501.7,37.6 	"/>
	<path style="fill:#EFEFEF;" d="M580,88.1V101l-78.8-79.5L231.1,298l8.5,8.2l3.8-3.8c-2.5,4.6-6.7,7.1-10.2,6
		c-4.1-1.3-6-7.2-4.3-13.5c-3-4.8,5.3-19.3,19.3-33.2c7.7-7.7,15.5-13.6,21.8-16.9c5.8-6.7,12.9-14.2,20.6-22
		c4.8-4.8,9.6-9.3,14.1-13.5c-0.4-0.1-0.7-0.2-0.9-0.5c-2.5-3.3,17.8-22.5,45.2-42.9c1.8-1.3,3.5-2.6,5.3-3.9
		c-0.3-0.1-0.4-0.3-0.6-0.5c-2.5-3.3,13.3-19.4,35.5-35.9c3-2.3,5.8-4.5,8.8-6.5v0c7-8.9,15.7-20.1,26.2-31.8
		c16.1-18,31.4-32.4,40.1-38.3c0,0,0.1,0,0.1-0.1c3.3-4.4,9.8-9.8,17.9-14.8c1.4-2.5,3.8-5.4,6.9-8c5.3-4.5,10.9-7,13.6-6h0.1
		c0,0,0,0,0,0c1.4,0,3.7,1.4,6.6,3.3c0,0,0,0.1,0,0.1c2,0,3.4,0.5,4.1,1.6c0.3,0.4,0.4,1,0.3,1.5c9,6.7,21.9,18.1,35.4,31.8
		c10.3,10.5,19.4,20.5,26,28.8C576.8,87.3,578.4,87.7,580,88.1z"/>
	<g id="Ice">
		<g>
			<polygon style="fill:#B1CBE5;" points="580,123.3 576.5,144.5 567.9,117.5 555.7,114 548.9,95.1 544.5,99.7 540.5,86.7 
				537.7,107 535.1,84.2 533.3,89.9 525.1,64.5 514.4,64.8 506.3,47.1 499.1,63 492.7,49.2 483.7,79.1 478.7,63.3 475.7,73 
				468.9,71.8 466.3,109.8 456.5,87.6 447.6,100.2 441.3,101.2 441.2,101.2 436.7,121 430.9,111.6 427.4,124.6 414.7,129 415,129.1 
				415,129.1 410.6,158.3 408.1,138 402.9,151.7 398.5,147.8 398.3,148.3 392.2,160.5 373.1,172.6 367.2,207.9 360.6,186.9 
				349.4,197.1 349.9,209.4 336,208.4 333.4,238.7 325.9,225.1 320.3,240.5 315.8,232 307.4,239.7 306.3,252.3 290.2,256.2 
				286.5,276.8 281.8,264.9 285.4,300.4 271.7,276.3 269.4,282.3 269.1,282.9 266,291.2 259.6,291.5 256.4,291.7 256,294.8 
				253.2,318.9 247.6,302.5 245.2,304.7 247.5,332.3 240.3,313.5 236.5,350.1 231.9,298.7 239.6,306.2 501.4,37.8 580,117.6 			"/>
		</g>
	</g>
	<g id="House">
		<rect x="455.8" y="171.9" style="fill:#684121;" width="55.2" height="86"/>
		
			<rect x="465" y="182.7" style="fill:#C68228;stroke:#684121;stroke-width:5.1204;stroke-miterlimit:10;" width="36.8" height="65.2"/>
		<g>
			<ellipse style="fill:#EFEFEF;" cx="428" cy="257.9" rx="12" ry="3"/>
			<ellipse style="fill:#EFEFEF;" cx="522" cy="257.9" rx="10" ry="3"/>
			<ellipse style="fill:#EFEFEF;" cx="436.9" cy="256.9" rx="7" ry="4"/>
			<ellipse style="fill:#EFEFEF;" cx="534" cy="256.9" rx="7" ry="4"/>
			<ellipse style="fill:#EFEFEF;" cx="443.8" cy="258.9" rx="7" ry="4"/>
			<ellipse style="fill:#EFEFEF;" cx="455.8" cy="256.9" rx="7" ry="4"/>
			<ellipse style="fill:#EFEFEF;" cx="463.6" cy="258.9" rx="7.9" ry="4"/>
			<ellipse style="fill:#EFEFEF;" cx="476.8" cy="258.9" rx="7.9" ry="5"/>
			<ellipse style="fill:#EFEFEF;" cx="490.1" cy="258.9" rx="10.7" ry="5"/>
			<ellipse style="fill:#EFEFEF;" cx="543.1" cy="258.9" rx="9" ry="5"/>
			<ellipse style="fill:#EFEFEF;" cx="502.9" cy="260.5" rx="8.1" ry="4.9"/>
			<ellipse style="fill:#EFEFEF;" cx="512" cy="258.9" rx="8.1" ry="4.9"/>
		</g>
		<rect x="413.1" y="257.9" style="fill:#774A28;" width="140.5" height="20.8"/>
		<line style="fill:none;stroke:#774A28;stroke-width:6.5668;stroke-miterlimit:10;" x1="450.5" y1="215.9" x2="450.5" y2="257.9"/>
		<line style="fill:none;stroke:#774A28;stroke-width:6.5668;stroke-miterlimit:10;" x1="483.3" y1="215.9" x2="483.3" y2="257.9"/>
		<line style="fill:none;stroke:#774A28;stroke-width:6.5668;stroke-miterlimit:10;" x1="516.2" y1="215.9" x2="516.2" y2="257.9"/>
		<line style="fill:none;stroke:#774A28;stroke-width:6.5668;stroke-miterlimit:10;" x1="549" y1="215.9" x2="549" y2="257.9"/>
		<circle style="fill:#472913;" cx="506.1" cy="217.2" r="3.6"/>
		<line style="fill:none;stroke:#774A28;stroke-width:6.5668;stroke-miterlimit:10;" x1="418.3" y1="215.9" x2="418.3" y2="257.9"/>
		<rect x="413.1" y="217.5" style="fill:#774A28;" width="143.2" height="6.6"/>
		<rect x="388.3" y="326.2" style="fill:#684121;" width="55.2" height="93.9"/>
		<circle style="fill:#472913;" cx="436.5" cy="381.4" r="5.3"/>
		
			<rect x="397.3" y="332.8" style="fill:#C68228;stroke:#684121;stroke-width:5.1204;stroke-miterlimit:10;" width="36.8" height="39.4"/>
		<line style="fill:none;stroke:#684121;stroke-width:2.6267;stroke-miterlimit:10;" x1="415.7" y1="326.2" x2="415.7" y2="381.4"/>
		<line style="fill:none;stroke:#684121;stroke-width:2.6267;stroke-miterlimit:10;" x1="388.1" y1="352.5" x2="443.3" y2="352.5"/>
		
			<rect x="477.7" y="87.1" style="fill:#C96827;stroke:#684121;stroke-width:5.1204;stroke-miterlimit:10;" width="49.5" height="46.4"/>
		<line style="fill:none;stroke:#684121;stroke-width:1.925;stroke-miterlimit:10;" x1="502.5" y1="87.1" x2="502.5" y2="133.4"/>
		<line style="fill:none;stroke:#684121;stroke-width:2.1176;stroke-miterlimit:10;" x1="477.3" y1="110.3" x2="527.6" y2="110.3"/>
		<g>
			
				<rect x="471.5" y="313.1" style="fill:#C65C28;stroke:#684121;stroke-width:5.1204;stroke-miterlimit:10;" width="91.2" height="65.1"/>
			
				<line style="fill:none;stroke:#684121;stroke-width:5.1204;stroke-miterlimit:10;" x1="517.1" y1="313.1" x2="517.1" y2="378.2"/>
			
				<line style="fill:none;stroke:#684121;stroke-width:5.1204;stroke-miterlimit:10;" x1="470.7" y1="345.6" x2="563.5" y2="345.6"/>
		</g>
		
			<rect x="293.5" y="313.1" style="fill:#C96827;stroke:#684121;stroke-width:5.1204;stroke-miterlimit:10;" width="73.6" height="65.1"/>
		<line style="fill:none;stroke:#684121;stroke-width:2.7817;stroke-miterlimit:10;" x1="330.3" y1="313.1" x2="330.3" y2="378.2"/>
		<line style="fill:none;stroke:#684121;stroke-width:3.06;stroke-miterlimit:10;" x1="292.9" y1="345.6" x2="367.8" y2="345.6"/>
	</g>
	<polygon id="Roof" style="fill:#59351C;" points="501.2,21.5 231.1,298 239.6,306.2 501.4,37.8 580,117.6 580,101 	"/>
	<path style="fill:#EFEFEF;" d="M580,401.9c-3.6-2-8.1-3.3-13.1-3.4c-8.2-0.2-15.3,2.6-18.9,7c0,0-0.1,0.1-0.1,0.1
		c-0.7,0-1.3-0.1-2-0.1c-0.6,0-1.1,0.1-1.7,0.1c-0.1-0.1-0.1-0.2-0.2-0.3c0,0,0-0.1-0.1-0.2c-3.7-4.7-13.2-8.2-24.1-8.2h-0.3
		c-8.5,0-16,2.1-20.6,5.2c-1.2-0.1-2.4-0.1-3.7-0.1c-5.6,0-10.8,1.1-14.8,2.9c-4.7-2.5-11.1-4.1-18.2-4.1c-0.2,0-0.4,0-0.7,0
		c-7.1,0.1-13.6,1.8-18.1,4.4c0,0-0.1,0-0.1,0.1c-2.6,1.5-4.6,3.4-5.7,5.4c0,0,0,0,0,0c0,0-0.1,0.1-0.1,0.1c-7.5-0.7-15.7-1-24.4-1
		c-6.4,0-12.6,0.4-18.4,0.4c-0.9-2.2-3.2-4.2-6.5-5.8c-4.6-2.1-10.8-3.4-17.8-3.4c-8.1,0-15.3,1.8-19.8,4.5c0,0,0,0,0,0
		c-5.7-1.6-12.7-2.6-20.3-2.6c-0.6,0-1.2,0-1.8,0h-0.1c-5.1-7-17.9-11.8-32.7-11.8c-12.9,0-23.7,3.7-30.3,9.2
		c-4.9-1.1-10.2-2-15.8-2.5c-3.9-0.4-8-0.6-12.2-0.6c-8.4,0-16.5,0.7-23.6,2.1c0,0,0,0,0,0c-0.3,0.1-0.6,0.1-0.9,0.2
		c0.3-0.1,0.6,0.1,0.9,0.1c-7.8-4.1-18.7-6.6-30.8-6.6h0c-4.1-6-15.1-9.9-28-9.9c-16.4,0-29.7,6.4-29.7,14.3c0,0.1,0,0.1,0,0.2
		c-12.1,1.2-21.5,6.2-23.1,12.3c-0.6-0.1-1.2-0.1-1.8-0.1c-0.2,0-0.5,0-0.7,0c-8.2,0-14.8,3.5-14.8,7.9c0,0.9,0.2,1.7,0.7,2.4
		c0,0,389.9,0.2,389.9,0.2c0-0.1,104.5-0.2,104.5-0.2V401.9z M194.8,405.3c0.6-0.3,1.3-0.6,2-0.9C196.1,404.7,195.4,405,194.8,405.3
		z"/>
</g>
</svg>
