<?xml version="1.0" encoding="utf-8"?>
<!-- Generator: Adobe Illustrator 19.1.1, SVG Export Plug-In . SVG Version: 6.00 Build 0)  -->
<svg version="1.1" id="Layer_1" xmlns="http://www.w3.org/2000/svg" xmlns:xlink="http://www.w3.org/1999/xlink" x="0px" y="0px"
	 viewBox="0 0 580 420" style="enable-background:new 0 0 580 420;" xml:space="preserve">
<g>
	<g>
		<rect x="265" y="229" style="fill:#EFEFEF;" width="15" height="16"/>
		<path style="fill:#EFEFEF;" d="M391.3,289.1c1.8,5.2,4.5,9.7,8,13.6c3.6,3.9,8,7.4,13.3,9.6c5.3,2.2,11.5,3.7,18.6,3.7H462v-87
			h-30.8c-6.5,0-12.3,1.1-17.6,3.1c-5.3,2.1-9.7,4.8-13.4,8.6c-3.8,3.8-6.6,8.4-8.6,13.7c-2,5.3-3,11.3-3,17.9
			C388.6,278.2,389.5,283.9,391.3,289.1z"/>
	</g>
	<path style="fill:#EFEFEF;" d="M285.8,271c1.6-23,20.1-40.3,42.8-40.3c23.7,0,43.1,19,43.1,42.7c0,23.7-18.7,42.7-42.7,42.7v-45
		H285.8z"/>
</g>
<g>
	<g>
		<rect x="446" y="172" style="fill:#EFEFEF;" width="16" height="17"/>
		<path style="fill:#EFEFEF;" d="M335.6,130.9c-1.8-5.2-4.5-9.9-8-13.8c-3.6-3.9-8-7.6-13.3-9.8c-5.3-2.2-11.5-4.2-18.6-4.2H265v86
			h30.7c6.5,0,12.3,0,17.6-2c5.3-2.1,9.7-3.8,13.4-7.6c3.8-3.8,6.6-8.3,8.6-13.7c2-5.3,3-11.3,3-17.9
			C338.3,141.9,337.4,136.1,335.6,130.9z"/>
	</g>
	<path style="fill:#EFEFEF;" d="M441,148c-1.6,22-20.1,40.9-42.8,40.9c-23.7,0-43-18.7-43-42.4s18.8-42.4,42.8-42.4V148H441z"/>
</g>
<path style="fill:#49565E;" d="M118,322h120.4V98H118V322z M194.1,239c5.2,2,9.8,4.7,13.4,8.4c3.7,3.6,6,8,8,13.1
	c2,5.1,2.8,10.8,2.8,17.1v29.9h-84.3v-29.9c0-6.9,1.4-12.9,3.6-18.1c2.2-5.2,5.4-9.5,9.2-13c3.8-3.5,8.3-6.1,13.4-7.8
	c5.1-1.8,10.7-2.6,16.5-2.6C183,236.1,189,237.1,194.1,239z M217.3,177.7c0,23.1-18.5,41.7-41.6,41.7s-41.6-18.6-41.6-41.9h44.2V136
	C199.9,137.6,217.3,155.7,217.3,177.7z M218.4,114.9v15.3h-16.1v-15.3H218.4z"/>
</svg>
