<?xml version="1.0" encoding="utf-8"?>
<!-- Generator: Adobe Illustrator 18.1.1, SVG Export Plug-In . SVG Version: 6.00 Build 0)  -->
<!DOCTYPE svg PUBLIC "-//W3C//DTD SVG 1.1//EN" "http://www.w3.org/Graphics/SVG/1.1/DTD/svg11.dtd">
<svg version="1.1" id="Layer_1" xmlns="http://www.w3.org/2000/svg" xmlns:xlink="http://www.w3.org/1999/xlink" x="0px" y="0px"
	 viewBox="0 0 390 195" enable-background="new 0 0 390 195" xml:space="preserve">
<rect x="-0.2" fill="#B2EBF2" width="392" height="194.9"/>
<rect x="-0.2" opacity="0.5" fill="#00BCD4" width="392" height="194.9"/>
<path fill="#0097A7" d="M37.1,195.2c0-29.4,6.9-53.1,15.4-53.1h6.8c8.5,0,15.4,23.8,15.4,53.2"/>
<ellipse fill="#EDCBA9" stroke="#EDCBA9" stroke-width="0.8575" stroke-miterlimit="10" cx="56.1" cy="121.3" rx="20.3" ry="24.1"/>
<polygon fill="#8C6239" points="35,106.6 46.2,90.8 48.1,94.2 51.6,87.2 53.2,91.1 56,87.2 59.4,92 63.7,89.4 69.4,99 71.7,94.2 
	80,101.6 80,113.4 76.9,122.1 71.2,116 66.2,116 55.3,109.9 50.7,115.4 46.3,112.2 42.6,115.2 37.6,121.7 32.6,109.9 "/>
<polygon fill="#754C24" points="38,110.5 45.9,97.7 48.8,101.6 54,93.7 58.3,97.7 62.8,93.7 67.5,105.8 71.9,97.7 76.4,105.8 
	75.4,116.4 68.8,110.5 62.8,112 55.8,105.8 43.3,112.5 40.2,116.4 38,115.3 "/>
<ellipse fill="#3FA9F5" cx="47.7" cy="124.1" rx="3.1" ry="2.8"/>
<ellipse fill="#3FA9F5" cx="62.7" cy="124.1" rx="3.1" ry="2.8"/>
<line fill="none" stroke="#754C24" stroke-width="0.4287" stroke-miterlimit="10" x1="42.7" y1="121.3" x2="50.8" y2="118"/>
<line fill="none" stroke="#754C24" stroke-width="0.4287" stroke-miterlimit="10" x1="60.4" y1="118" x2="67.5" y2="119.6"/>
<path fill="none" stroke="#333333" stroke-width="0.8575" stroke-miterlimit="10" d="M48.5,137.5c0,0,17.2,3,15.9-2.3"/>
<ellipse fill="#EDCBA9" cx="104.8" cy="136.9" rx="6.3" ry="5.2"/>
<path fill="#0097A7" stroke="#0097A7" stroke-width="1.9242" stroke-miterlimit="10" d="M65.7,152c0,0,29.2-1.3,32-13.6l11.2,2.9
	c0,0-14.3,16.6-40.9,15.3L65.7,152z"/>
<ellipse fill="#EDCBA9" cx="25.1" cy="189.9" rx="3.5" ry="3.5"/>
<path fill="#0097A7" stroke="#0097A7" stroke-width="1.9242" stroke-miterlimit="10" d="M44.2,153.6c0,0-21.2,21-21.7,34.5h6.1
	c0,0,10.3-29.8,15.6-27.4V153.6z"/>
<rect x="199.9" y="164.2" fill="#606060" width="11.6" height="30.7"/>
<rect x="328.6" y="164.2" fill="#606060" width="11.6" height="30.7"/>
<rect x="199.9" y="161.8" fill="#606060" width="140.3" height="14.2"/>
<path fill="#D3D0D5" d="M280.8,159.6l-16.5,0l1.3-9.1h14L280.8,159.6z"/>
<path fill="#D3D0D5" d="M281.7,161.8l-18.3,0c-0.2,0-0.3-0.1-0.3-0.3c0-0.1,0-0.1,0-0.2l1.1-1.8c0.1-0.1,0.1-0.1,0.2-0.1h16.1
	c0.1,0,0.2,0.1,0.3,0.1l1.1,1.8c0.1,0.1,0,0.3-0.1,0.4C281.8,161.8,281.7,161.8,281.7,161.8z"/>
<path fill="#474748" d="M309.2,98.1h-73.4c-0.8,0-1.4,0.6-1.4,1.4c0,0,0,45.1,0,45.5h76.2c0-0.8,0-45.5,0-45.5
	C310.6,98.7,310,98.1,309.2,98.1z"/>
<path fill="#EBEAED" d="M309.4,151h-73.5c-0.8,0-1.4-0.6-1.4-1.4c0,0,0-4.5,0-4.6h76.2c0,0.1,0,4.6,0,4.6
	C310.7,150.4,310.1,151,309.4,151z"/>
<path fill="#B2EBF2" d="M306.5,102h-67.8c-0.1,0-0.1,0-0.1,0.1v38.4c0,0.1,0,0.1,0.1,0.1h67.8c0.1,0,0.1,0,0.1-0.1v-38.4
	C306.6,102,306.5,102,306.5,102z"/>
</svg>
