<?xml version="1.0" encoding="utf-8"?>
<!-- Generator: Adobe Illustrator 18.1.1, SVG Export Plug-In . SVG Version: 6.00 Build 0)  -->
<!DOCTYPE svg PUBLIC "-//W3C//DTD SVG 1.1//EN" "http://www.w3.org/Graphics/SVG/1.1/DTD/svg11.dtd">
<svg version="1.1" id="Layer_1" xmlns="http://www.w3.org/2000/svg" xmlns:xlink="http://www.w3.org/1999/xlink" x="0px" y="0px"
	 viewBox="0 0 800 800" style="enable-background:new 0 0 800 800;" xml:space="preserve">
<path style="fill:#282828;" d="M572.1,759.5c0-213.3-67.6-385.5-151.2-385.5h-66.4c-83.6,0-151.2,171.9-151.2,385.2
	C203.2,759.2,380.1,829.1,572.1,759.5z"/>
<ellipse style="fill:#282828;" cx="384.5" cy="264.3" rx="145.3" ry="173.6"/>
<polygon style="fill:#282828;" points="232.7,158.4 313.6,44.2 327.3,69 352,18.4 363.2,46.7 383.3,18.3 407.9,52.9 439.2,34 
	479.3,103.3 493.5,68.6 550,122.2 550,207.3 530.3,266.7 492.7,219 457,219 378.9,178.5 345.4,219.6 314.2,197.7 287.4,219.8 
	251.6,267.1 215.9,182 "/>
<polygon style="fill:#EFEFEF;" points="317.7,438.1 386.1,477.6 317.7,517.1 "/>
<polygon style="fill:#EFEFEF;" points="460,513 391.6,473.5 460,434 "/>
<ellipse style="fill:#EFEFEF;" cx="386.3" cy="473.9" rx="33" ry="30.1"/>
</svg>
