<?xml version="1.0" encoding="utf-8"?>
<!-- Generator: Adobe Illustrator 18.1.1, SVG Export Plug-In . SVG Version: 6.00 Build 0)  -->
<!DOCTYPE svg PUBLIC "-//W3C//DTD SVG 1.1//EN" "http://www.w3.org/Graphics/SVG/1.1/DTD/svg11.dtd">
<svg version="1.1" id="Layer_1" xmlns="http://www.w3.org/2000/svg" xmlns:xlink="http://www.w3.org/1999/xlink" x="0px" y="0px"
	 viewBox="-270 272 250 250" enable-background="new -270 272 250 250" xml:space="preserve">
<g>
	<path fill="#EFEFEF" d="M-214.2,493.5v-39.6c13.8,10.1,29.9,15.1,48.4,15.1c11.6,0,20.7-2.5,27.1-7.5c6.5-5,9.7-11.9,9.7-20.9
		c0-9.2-4-16.3-12-21.3c-8-5-19-7.5-33-7.5h-19.1v-34.8h17.7c26.9,0,40.3-8.9,40.3-26.8c0-16.8-10.3-25.2-31-25.2
		c-13.8,0-27.3,4.5-40.3,13.4v-37.1c14.5-7.3,31.4-10.9,50.7-10.9c21.1,0,37.5,4.8,49.3,14.3c11.8,9.5,17.6,21.8,17.6,37
		c0,27-13.7,43.9-41,50.7v0.7c14.6,1.8,26.1,7.1,34.5,15.9c8.4,8.8,12.7,19.6,12.7,32.3c0,19.3-7.1,34.5-21.2,45.8
		c-14.1,11.2-33.6,16.8-58.4,16.8C-183.5,503.9-200.8,500.4-214.2,493.5z"/>
</g>
<rect x="-280" y="395.3" transform="matrix(-0.6574 -0.7536 0.7536 -0.6574 -539.3308 560.363)" fill="#EAC924" width="275.5" height="15"/>
<polygon fill="#E0D08C" points="-51.7,506.5 -46,501.6 -44.5,509 -43,516.4 -50.2,514 -57.4,511.5 "/>
<path fill="#E89ED1" d="M-252.1,276.9c-3.1,2.7-3.4,7.5-0.7,10.6l4.7,5.4c2.7,3.1,7.5,3.4,10.6,0.7l0,0c3.1-2.7,3.4-7.5,0.7-10.6
	l-4.7-5.4C-244.3,274.5-249,274.1-252.1,276.9L-252.1,276.9z"/>
<rect x="-244.7" y="286.1" transform="matrix(-0.6574 -0.7536 0.7536 -0.6574 -614.9247 307.5636)" fill="#706F69" width="14.3" height="15"/>
<polygon fill="#706F69" points="-46,513 -44,511.2 -43.5,513.8 -43,516.4 -45.5,515.5 -48,514.7 "/>
<line fill="none" stroke="#DBB823" stroke-miterlimit="10" x1="-225" y1="307.8" x2="-59.6" y2="497.4"/>
</svg>
