<?xml version="1.0" encoding="utf-8"?>
<!-- Generator: Adobe Illustrator 18.1.1, SVG Export Plug-In . SVG Version: 6.00 Build 0)  -->
<!DOCTYPE svg PUBLIC "-//W3C//DTD SVG 1.1//EN" "http://www.w3.org/Graphics/SVG/1.1/DTD/svg11.dtd">
<svg version="1.1" id="Layer_1" xmlns="http://www.w3.org/2000/svg" xmlns:xlink="http://www.w3.org/1999/xlink" x="0px" y="0px"
	 viewBox="0 0 792 792" enable-background="new 0 0 792 792" xml:space="preserve">
<path fill="#2BAA6D" d="M416.7,342.3c0,0-89.8,38-70.5-191.5C346.1,150.8,465.5,252.1,416.7,342.3z"/>
<path fill="#2BAA6D" d="M452.9,338.6c0,0-92.4-95.7,16.5-139.4C469.4,199.2,531.2,370.4,452.9,338.6z"/>
<g>
	<g>
		<path fill="#EA6C18" d="M303.4,141.7c36.6,59.8,73.2,119.6,109.9,179.5c33.7-59.8,67.4-119.6,101.1-179.5h147.5v388.6H548.5V425.1
			l10.4-162c-37.2,70.1-74.4,140.3-111.6,210.4c-22.7,0-45.5,0-68.2,0c-40.2-70.1-80.5-140.3-120.7-210.4l10.4,162v105.2h-113V141.7
			H303.4z"/>
	</g>
</g>
<g>
	<path fill="#EA6C18" d="M167.5,546.9l23.7,73.1l23.6-73.1h33.1V648h-25.4v-27.4l2.3-42.1L199.7,648h-17.2l-25.1-69.5l2.3,42.1V648
		h-25.3V546.9H167.5z"/>
	<path fill="#EA6C18" d="M329.7,627.3h-34.6l-6.7,20.7h-26.8l39.2-101.1H324L363.4,648h-27.1L329.7,627.3z M300.6,610.3h23.4
		l-11.7-36L300.6,610.3z"/>
	<path fill="#EA6C18" d="M462.9,648h-25.3l-37.1-66.3V648h-25.3V546.9h25.3l37.1,66.4v-66.4h25.2V648z"/>
	<path fill="#EA6C18" d="M568.5,636.5c-1.3,1.2-3.1,2.5-5.3,4c-2.2,1.5-5,2.9-8.4,4.2c-3.4,1.3-7.3,2.4-11.8,3.3
		c-4.5,0.9-9.8,1.4-15.7,1.4c-7,0-13.3-0.9-19-2.6c-5.6-1.8-10.5-4.4-14.5-8c-4-3.6-7.1-8.1-9.3-13.5c-2.2-5.4-3.2-11.8-3.2-19.2
		v-17.1c0-7.4,1-13.8,3.1-19.2c2.1-5.4,5-10,8.8-13.6c3.8-3.6,8.5-6.3,14-8.1c5.5-1.8,11.6-2.6,18.5-2.6c7.1,0,13.3,0.7,18.4,2.2
		c5.2,1.4,9.5,3.6,12.9,6.4c3.4,2.8,6.1,6.4,7.9,10.6c1.8,4.2,3,9,3.5,14.5h-24.6c-0.3-3.2-0.9-5.9-1.7-8c-0.8-2.1-1.9-3.8-3.3-5.1
		c-1.4-1.3-3.1-2.2-5.2-2.7c-2-0.6-4.5-0.8-7.3-0.8c-3.3,0-6.2,0.5-8.7,1.4c-2.5,0.9-4.5,2.5-6.2,4.6c-1.6,2.1-2.9,4.8-3.7,8.2
		c-0.8,3.4-1.2,7.4-1.2,12.2V606c0,4.8,0.4,8.9,1.3,12.2c0.9,3.3,2.2,6.1,4.1,8.2c1.8,2.1,4.1,3.6,6.9,4.6c2.8,0.9,6,1.4,9.7,1.4
		c2.2,0,4.1-0.1,5.7-0.4c1.6-0.3,2.9-0.6,4.1-1c1.1-0.4,2-0.8,2.8-1.2c0.7-0.4,1.3-0.8,1.9-1v-18.5h-17.8v-15.4h43.2V636.5z"/>
	<path fill="#EA6C18" d="M674.8,606.5c0,7.1-1.1,13.3-3.3,18.7c-2.2,5.4-5.2,9.8-9.2,13.4c-3.9,3.6-8.7,6.2-14.2,8.1
		c-5.5,1.8-11.7,2.7-18.4,2.7c-6.7,0-12.9-0.9-18.4-2.7c-5.6-1.8-10.4-4.5-14.3-8.1c-4-3.6-7.1-8-9.3-13.4
		c-2.2-5.4-3.3-11.6-3.3-18.7v-16.8c0-7.3,1.1-13.7,3.3-19.2c2.2-5.5,5.3-10.1,9.2-13.8c4-3.7,8.7-6.5,14.3-8.4
		c5.6-1.9,11.7-2.8,18.4-2.8c6.7,0,12.9,0.9,18.4,2.8c5.5,1.9,10.3,4.7,14.3,8.4c4,3.7,7.1,8.3,9.3,13.8c2.2,5.5,3.3,11.9,3.3,19.2
		V606.5z M649.4,589.6c0-4.8-0.4-8.9-1.3-12.3c-0.9-3.4-2.1-6.2-3.8-8.4c-1.7-2.2-3.7-3.8-6.2-4.8c-2.5-1-5.3-1.5-8.5-1.5
		c-3.3,0-6.1,0.5-8.6,1.5c-2.5,1-4.5,2.6-6.2,4.8c-1.7,2.2-2.9,5-3.8,8.4c-0.9,3.4-1.3,7.5-1.3,12.3v16.9c0,4.6,0.4,8.5,1.3,11.8
		c0.9,3.3,2.1,5.9,3.8,8c1.7,2.1,3.8,3.6,6.3,4.6c2.5,1,5.4,1.5,8.7,1.5c3.2,0,6-0.5,8.5-1.5c2.4-1,4.5-2.5,6.2-4.6
		c1.7-2.1,2.9-4.8,3.7-8c0.8-3.3,1.2-7.2,1.2-11.8V589.6z"/>
</g>
</svg>
