<?xml version="1.0" encoding="utf-8"?>
<!-- Generator: Adobe Illustrator 19.2.0, SVG Export Plug-In . SVG Version: 6.00 Build 0)  -->
<svg version="1.1" id="Layer_1" xmlns="http://www.w3.org/2000/svg" xmlns:xlink="http://www.w3.org/1999/xlink" x="0px" y="0px"
	 viewBox="0 0 374.5 479.1" style="enable-background:new 0 0 374.5 479.1;" xml:space="preserve">
<style type="text/css">
	.st0{fill:url(#SVGID_1_);}
	.st1{fill:#D6D6D6;}
	.st2{fill:#4C3C2E;}
	.st3{fill:#EDC9B0;}
	.st4{opacity:0.12;fill:#A3A3A3;}
	.st5{opacity:0.2;fill:#5D5D5D;}
	.st6{fill:#564539;}
	.st7{opacity:0.1;fill:#5D5D5D;}
	.st8{opacity:0.1;fill:#A3A3A3;}
	.st9{opacity:0.2;fill:#FFFFFF;}
	.st10{opacity:0.3;fill:#FFFFFF;}
	.st11{opacity:0.5;fill:#C9C9C9;}
	.st12{fill:#52A4C1;}
	.st13{fill:#4894A8;}
	.st14{opacity:0.8;fill:#4C3C2E;}
	.st15{fill:#E5C5AE;}
	.st16{opacity:0.2;}
	.st17{opacity:0.15;}
	.st18{opacity:0.8;}
	.st19{opacity:0.4;fill:#FFFFFF;}
	.st20{fill:#232323;}
	.st21{fill:#565656;}
	.st22{fill:#383838;}
	.st23{fill:url(#SVGID_2_);}
	.st24{fill:#5D5D5D;}
	.st25{opacity:0.1;}
	.st26{fill:url(#SVGID_3_);}
</style>
<title>personal-image</title>
<linearGradient id="SVGID_1_" gradientUnits="userSpaceOnUse" x1="169.3411" y1="479.11" x2="169.3411" y2="299.5682">
	<stop  offset="0" style="stop-color:#4A66D4"/>
	<stop  offset="1" style="stop-color:#3DA2F5"/>
</linearGradient>
<polygon class="st0" points="297.7,329.9 278.3,403.8 265.3,479.1 60.5,479.1 41,328 112.7,299.6 125.7,313.1 169.2,324.6 
	213.5,314 219.5,301.9 "/>
<line class="st1" x1="60.5" y1="479" x2="43.9" y2="350.3"/>
<polygon class="st2" points="268.3,148.9 257.5,178.4 229.8,107.3 185.1,80.8 125.1,90 97.7,120.5 92.8,130.9 92.8,130.9 
	70.1,178.4 63.7,143.8 70.1,96.1 92.7,88 85.5,68.7 132.3,28.1 139.4,34.7 148.5,1.7 201.3,34.7 201.3,46.4 217.6,34.7 249.1,90 
	249.1,80.8 "/>
<polygon class="st3" points="257.5,178.4 249.1,242.4 213.5,314 169.2,324.6 125.7,313.1 125.7,313 91.6,277.9 70.1,178.4 
	97.7,120.5 125.1,90 185.1,80.8 229.8,107.3 "/>
<polygon class="st4" points="188.4,234.3 177.3,244.4 166.1,241.9 162.1,241.9 150.9,244.4 139.8,234.3 147.4,220.9 152.6,186.2 
	154.3,175 157.5,172.7 164.1,175 164.3,174.9 170.7,172.7 173.9,175 175.6,186.2 180.8,220.9 "/>
<polygon class="st5" points="144.7,238.5 153.4,233.9 162,241.7 150.8,244.4 "/>
<polygon class="st5" points="183.4,238.5 174.8,233.9 166.2,241.7 177.3,244.4 "/>
<polygon class="st6" points="139.4,34.7 85.5,68.7 132.3,28.1 "/>
<polygon class="st6" points="201.3,46.4 185.1,80.8 217.6,34.7 "/>
<polygon class="st6" points="85.5,68.7 125.1,90 92.7,88 "/>
<polygon class="st6" points="70.1,96.1 97.7,120.5 70.1,106.6 "/>
<polygon class="st6" points="249.1,90 229.8,107.3 252,91.3 249.1,80.8 "/>
<polygon class="st7" points="97.7,120.5 125.1,90 140.6,87.7 "/>
<polygon class="st7" points="140.6,87.7 229.8,107.3 185.1,80.8 "/>
<polygon class="st8" points="173.9,170.4 172.6,182.1 166.2,241.7 164.3,170.8 164.3,170.4 170.7,168 "/>
<polygon class="st9" points="105.3,141.8 220.1,134.2 172.9,146.4 "/>
<polygon class="st9" points="108.4,124.6 182.6,129.6 209.4,124.6 "/>
<polygon class="st10" points="102,132.4 115.2,129.6 141.2,132.4 "/>
<polygon class="st7" points="78,214.7 125.7,313 91.6,277.9 "/>
<polygon class="st7" points="249.1,242.4 169.2,324.6 213.5,314 "/>
<g>
	<g>
		<polygon class="st11" points="122.6,174.3 94.9,177.7 104.1,192.5 119.7,193.5 		"/>
		<polygon class="st11" points="122.6,174.3 140.7,185.6 119.7,193.5 		"/>
		<g>
			<polygon class="st12" points="127.7,182.9 120,191.5 110.2,187.6 112.2,178.8 122.4,176.1 			"/>
			<polygon class="st9" points="112.2,178.8 128.4,184.5 122.9,176.1 			"/>
			<polygon class="st13" points="127.7,182.9 110.2,187.6 120,191.5 			"/>
		</g>
	</g>
</g>
<g>
	<g>
		<polygon class="st11" points="205.5,174.3 233.2,177.7 224,192.5 208.4,193.5 		"/>
		<polygon class="st11" points="205.5,174.3 187.4,185.6 208.4,193.5 		"/>
		<g>
			<polygon class="st12" points="200.4,182.9 208.1,191.5 217.9,187.6 215.9,178.8 205.7,176.1 			"/>
			<polygon class="st9" points="215.3,177.9 200.4,182.9 205.5,176.4 			"/>
			<polygon class="st13" points="200.4,182.9 217.9,187.6 208.1,191.5 			"/>
		</g>
	</g>
</g>
<g>
	<polygon class="st2" points="151.5,159.7 117.5,149.9 109,156.7 	"/>
	<polygon class="st6" points="117.5,149.9 90.6,153 109,156.7 	"/>
	<polygon class="st14" points="90.6,153 83.9,156.7 109,156.7 	"/>
	<polygon class="st6" points="151.5,159.7 109,156.7 154.4,163 	"/>
</g>
<g>
	<polygon class="st2" points="177,159.9 211,150.2 219.5,156.9 	"/>
	<polygon class="st6" points="211,150.2 238,153.2 219.5,156.9 	"/>
	<polygon class="st14" points="238,153.2 244.6,156.9 219.5,156.9 	"/>
	<polygon class="st6" points="177,159.9 219.5,156.9 174.2,163.3 	"/>
</g>
<g>
	<polygon class="st15" points="188.4,274.5 177.2,280.8 177.1,280.7 177.1,280.8 163.5,281.4 163.5,277.6 172.5,276.4 	"/>
	<polygon class="st15" points="136.4,282.3 145.7,278.3 154.6,276.4 163.5,277.6 163.5,281.4 150,280.8 	"/>
	<polygon class="st8" points="163.5,277.7 177.1,280.8 172.5,276.4 	"/>
	<polygon class="st8" points="163.5,277.6 136.4,282.3 154.6,276.4 	"/>
	<polygon class="st5" points="181.3,284.6 172.2,285.5 163.7,286.6 163.6,286.6 155.1,285.5 145.9,284.6 136.5,282.3 150.1,280.8 
		163.6,281.4 177.2,280.8 	"/>
	<polygon class="st7" points="163.7,286.6 177.2,280.8 181.3,284.6 	"/>
	<polygon class="st7" points="163.7,286.6 150.1,280.8 136.5,282.3 	"/>
	<polygon class="st5" points="181.3,284.6 192.7,277.6 177.2,280.8 	"/>
	<polygon class="st7" points="188.4,274.5 195.6,274.5 192.7,277.6 177.2,280.8 	"/>
</g>
<polygon class="st16" points="213.5,314 164.3,337.8 169.2,324.6 "/>
<path class="st17" d="M297.7,330c-6.5,24.6-12.9,49.3-19.4,73.9l-13,75.2h-85.3C219.2,429.9,258.4,379.7,297.7,330z"/>
<polygon class="st16" points="164.3,337.8 125.7,313 169.2,324.6 "/>
<g>
	<g>
		<polygon class="st3" points="190,460.4 190,479.1 119,479.1 119,468.4 135.7,456.2 132.5,428.2 144,416.3 150.9,421.7 
			152.4,435.8 168.1,461.9 		"/>
	</g>
</g>
<polyline class="st7" points="190,479.1 176.4,479.1 190,460.5 "/>
<g>
	<g class="st18">
		<polygon class="st19" points="251.6,177.1 248.2,203.7 240.1,216.6 219.6,224.5 202.3,225.1 186.2,216.9 173.8,203.1 173.3,187.3 
			188.1,170.3 188.1,170.3 188.1,170.3 247.1,170.5 		"/>
		<polygon class="st19" points="155.1,187.3 154.5,203.1 142.1,216.9 126.1,225.1 108.7,224.5 88.2,216.6 80.2,203.7 76.8,177.1 
			81.3,170.5 81.3,170.5 140.3,170.3 140.3,170.3 		"/>
	</g>
	<g>
		<g>
			<polygon class="st20" points="85.8,163.8 155.7,170.3 81.3,170.5 			"/>
			<polygon class="st20" points="242.6,163.8 172.7,170.3 247.1,170.5 			"/>
			<polygon class="st20" points="155.1,187.4 164.2,185 173.2,187.4 164.2,173.7 			"/>
			<polygon class="st21" points="160.3,186 154.8,196.1 155.1,187.4 			"/>
			<polygon class="st21" points="168.2,186 173.6,196.1 173.3,187.4 			"/>
			<polygon class="st22" points="253.8,163.4 253.8,177.1 251.6,177.2 251.6,177.1 247.1,170.5 242.6,163.8 			"/>
			<polygon class="st22" points="85.8,163.8 81.3,170.5 76.8,177.1 76.7,177.2 74.6,177.1 74.6,163.4 			"/>
		</g>
		<polygon class="st22" points="188.1,170.3 174.6,185.8 173.3,187.3 173.2,187.4 171.9,185.4 164.4,174 164.2,173.7 164.4,173.7 
			170.2,171.3 172.7,170.3 188.1,170.3 		"/>
		<polygon class="st22" points="164.2,173.7 155.1,187.4 155.1,187.3 153.7,185.8 140.3,170.3 140.3,170.3 155.7,170.3 158.2,171.3 
					"/>
	</g>
</g>
<polygon class="st7" points="119,468.4 135.8,456.2 119,479 "/>
<linearGradient id="SVGID_2_" gradientUnits="userSpaceOnUse" x1="282.1163" y1="479.11" x2="282.1163" y2="329.9248">
	<stop  offset="0" style="stop-color:#4A66D4"/>
	<stop  offset="1" style="stop-color:#3DA2F5"/>
</linearGradient>
<path class="st23" d="M278.2,403.8c10.6,7.3,21.3,14.6,31.9,21.8l-39.3,20.1L190,456.9v22.2h145.2l34.9-9.4l4.1-28.6l-76.6-111.2
	C291.2,354.6,284.7,379.2,278.2,403.8z"/>
<path class="st24" d="M278.1,403.8"/>
<polygon class="st25" points="297.7,329.9 213.5,314 219.5,301.9 "/>
<polygon class="st17" points="125.7,313 60.5,479 41,328 "/>
<linearGradient id="SVGID_3_" gradientUnits="userSpaceOnUse" x1="30.9217" y1="479.11" x2="30.9217" y2="328.0345">
	<stop  offset="0" style="stop-color:#4A66D4"/>
	<stop  offset="1" style="stop-color:#3DA2F5"/>
</linearGradient>
<polygon class="st26" points="41,328 1.3,425.1 6.3,479.1 60.5,479.1 "/>
<polygon class="st25" points="112.7,299.5 41,328 125.7,313 "/>
</svg>
